<?xml version="1.0" encoding="UTF-8"?>
<svg id="Layer_1" xmlns="http://www.w3.org/2000/svg" version="1.1" viewBox="0 0 1321.57 484.67">
  <!-- Generator: Adobe Illustrator 29.1.0, SVG Export Plug-In . SVG Version: 2.1.0 Build 142)  -->
  <defs>
    <style>
      .st0 {
        fill: #fff;
      }
    </style>
  </defs>
  <path class="st0" d="M1033.79,151.7c3,2.99,4.33,9.82,3.33,14.81-1,4.99-32.28,129.44-32.28,129.44l-36.6-144.08s-83.27-.17-93.58-.17c4.99,7.24,3.74,13.81,2.74,18.47-1,4.66-33.27,132.77-35.93,141.75-2.66,8.98-4.99,13.31-9.65,15.64h41.92c-2.33-4.99-3.99-7.65-2.33-14.64,1.66-6.99,32.28-129.44,32.28-129.44l35.94,143.91h86.51s39.6-154.89,41.59-162.21c2-7.32,7.66-11.81,10.65-13.48h-44.59Z"/>
  <path class="st0" d="M660.79,0C302.42,0,0,108.5,0,242.33s295.85,242.33,660.79,242.33,660.79-108.49,660.79-242.33S1025.72,0,660.79,0ZM660.79,442.61C302.14,442.61,11.39,352.75,11.39,241.91S308.71,41.21,660.79,41.21s649.39,89.86,649.39,200.7-290.75,200.7-649.39,200.7Z"/>
  <path class="st0" d="M1099.96,160.16h-7.96l-4.44,20.89h3.17l1.92-9.03h3.64l3.59,9.03h3.54l-3.99-9.17c3.15-.39,5.84-2.01,6.64-5.76.88-4.13-1.18-5.95-6.11-5.95ZM1102.81,165.92c-.68,3.22-3.12,3.41-5.81,3.41h-3.79l1.38-6.49h4.31c2.21,0,4.45.48,3.9,3.08Z"/>
  <path class="st0" d="M1100.62,152.55c-9.99,0-20.04,7.61-22.26,18.03-2.22,10.47,4.59,18.09,14.59,18.09s19.88-7.63,22.1-18.09c2.21-10.42-4.56-18.03-14.43-18.03ZM1111.43,170.58c-1.85,8.7-9.66,15.1-17.85,15.1s-13.45-6.4-11.6-15.1c1.82-8.6,9.7-15.03,18-15.03s13.27,6.44,11.45,15.03Z"/>
  <path class="st0" d="M607.55,306.42c-.5-2.99-24.96-154.73-24.96-154.73h-77.86l4.49,10.48s-88.84,123.78-98.83,136.26c-6.05,7.56-14.46,16.56-20.16,22.5-3.07-5.66-4.12-12.45-4.46-14.52-.5-2.99-24.96-154.73-24.96-154.73h-77.86l4.49,10.48s-88.84,123.78-98.83,136.26c-9.98,12.48-26.45,28.95-26.45,28.95h50.41c-3.49-7.99,1-18.97,1-18.97l20.46-27.95h76.86s3.49,19.96,4.49,26.45c1,6.49-3.99,16.97-8.48,20.46h127.44c-3.49-7.99,1-18.97,1-18.97l20.46-27.95h76.86s3.49,19.96,4.49,26.45c1,6.49-2.41,16.22-8.48,20.46h88.84c-7.49-4.99-9.48-17.97-9.98-20.97ZM255.5,250.52l40.43-55.9,9.98,55.9h-50.41ZM477.28,250.52l40.43-55.9,9.98,55.9h-50.41Z"/>
  <path class="st0" d="M814.02,151.7h-101.32c-17.47,0-42.92,8.99-50.91,32.44-7.99,23.46-27.45,101.82-27.45,101.82-6.49,26.95,8.48,41.43,28.45,41.43h105.32c16.97,0,40.92-3.5,50.91-34.44,9.98-30.95,23.46-89.84,26.45-104.32,2.99-14.48.5-36.94-31.44-36.94ZM778.83,194.87c-1.67,8.55-21.71,87.09-23.71,93.58-2,6.49-5.49,10.48-12.98,10.48h-31.44c-6.99,0-12.48-1-10.48-9.99,0,0,22.46-91.84,24.46-96.83,2-4.99,5.99-8.98,10.98-8.98h35.19c4.49,0,9.98,1.5,7.99,11.73Z"/>
</svg>